<?xml version="1.0" encoding="UTF-8"?>
<svg id="Capa_1" xmlns="http://www.w3.org/2000/svg" version="1.1" viewBox="0 0 2729.36 527.57">
  <!-- Generator: Adobe Illustrator 29.0.1, SVG Export Plug-In . SVG Version: 2.1.0 Build 192)  -->
  <defs>
    <style>
      .st0 {
        fill: #fff;
      }
    </style>
  </defs>
  <g>
    <path class="st0" d="M591.98,136.52h49.66c4.77,0,8.64,3.87,8.64,8.64v239.66c0,4.77-3.87,8.64-8.64,8.64h-49.66c-4.77,0-8.64-3.87-8.64-8.64v-239.67c0-4.77,3.87-8.64,8.64-8.64Z"/>
    <path class="st0" d="M910.91,208.85c0-51.82-44.62-72.33-89.96-72.33h-122.35c-4.77,0-8.64,3.87-8.64,8.64v239.67c0,4.77,3.87,8.64,8.64,8.64h49.66c4.77,0,8.64-3.87,8.64-8.64v-76.29c0-4.77,3.87-8.64,8.64-8.64h42.1c26.8,0,33.82,19.51,36.42,41.38h-.07v43.54c0,4.77,3.87,8.64,8.64,8.64h49.66c4.77,0,8.64-3.87,8.64-8.64v-43.54c0-32.23-12.95-60.82-40.3-67.29v-.72c26.99-10.44,40.3-36.7,40.3-64.41ZM813.03,248.08h-47.5c-4.77,0-8.64-3.87-8.64-8.64v-40.66c0-4.77,3.87-8.64,8.64-8.64h44.62c18.71,0,33.83,8.64,33.83,27.71s-10.79,30.23-30.95,30.23Z"/>
    <path class="st0" d="M1063.08,129.44c-80.97,0-126.67,59.38-126.67,133.87s45.7,133.87,126.67,133.87,126.67-59.38,126.67-133.87-45.7-133.87-126.67-133.87ZM1063.08,339.6c-43.18,0-59.74-38.15-59.74-76.29s16.55-76.29,59.74-76.29,59.74,38.14,59.74,76.29-16.55,76.29-59.74,76.29Z"/>
    <path class="st0" d="M2019.92,142.56c-1.13-3.6-4.47-6.04-8.24-6.04h-64.39c-3.75,0-7.06,2.41-8.22,5.98l-46.38,143.35c-2.1,6.48-10.43,8.02-14.87,2.85-6.17-7.19-14.13-12.38-23.96-14.71v-.72c26.99-10.44,40.3-36.7,40.3-64.41,0-51.82-44.62-72.33-89.96-72.33h-413.5c-4.77,0-8.64,3.87-8.64,8.64v149.7h-.72l-86.77-153.94c-1.53-2.72-4.41-4.4-7.52-4.4h-55.05c-4.77,0-8.64,3.87-8.64,8.64v239.67c0,4.77,3.87,8.64,8.64,8.64h45.7c4.77,0,8.64-3.87,8.64-8.64v-151.5h.72l86.77,155.7c1.52,2.74,4.41,4.43,7.54,4.43h55.02c4.77,0,8.64-3.87,8.64-8.64v-182.09c0-4.77,3.87-8.64,8.64-8.64h62.26c4.77,0,8.64,3.87,8.64,8.64v182.09c0,4.77,3.87,8.64,8.64,8.64h49.66c4.77,0,8.64-3.87,8.64-8.64v-182.09c0-4.77,3.87-8.64,8.64-8.64h64.43c4.77,0,8.64,3.87,8.64,8.64v182.09c0,4.77,3.87,8.64,8.64,8.64h49.66c4.77,0,8.64-3.87,8.64-8.64v-76.29c0-4.77,3.87-8.64,8.64-8.64h42.1c26.8,0,33.82,19.51,36.41,41.38h-.07v43.54c0,4.77,3.87,8.64,8.64,8.64h85.17c3.92,0,7.35-2.64,8.35-6.44l48.68-184.65h.72l48.68,184.65c1,3.79,4.43,6.44,8.35,6.44h51.38c5.84,0,9.99-5.67,8.24-11.23l-75.52-239.67ZM1796.29,248.08h-47.5c-4.77,0-8.64-3.87-8.64-8.64v-40.66c0-4.77,3.87-8.64,8.64-8.64h44.62c18.71,0,33.83,8.64,33.83,27.71s-10.79,30.23-30.95,30.23Z"/>
    <path class="st0" d="M2495.81,335.88h-124.15c-4.77,0-8.64-3.87-8.64-8.64v-31.67c0-4.77,3.87-8.64,8.64-8.64h108.68c4.77,0,8.64-3.87,8.64-8.64v-34.54c0-4.77-3.87-8.64-8.64-8.64h-108.68c-4.77,0-8.64-3.87-8.64-8.64v-27.71c0-4.77,3.87-8.64,8.64-8.64h120.55c4.77,0,8.64-3.87,8.64-8.64v-36.34c0-4.77-3.87-8.64-8.64-8.64h-187.49c-.78,0-1.53.11-2.25.3-.72-.19-1.47-.3-2.27-.3h-51.28c-3.92,0-7.35,2.64-8.35,6.44l-48.68,184.65h-.72l-48.68-184.65c-1-3.79-4.43-6.44-8.35-6.44h-51.38c-5.84,0-9.99,5.67-8.24,11.23l75.52,239.66c1.13,3.6,4.47,6.04,8.24,6.04h64.39c3.75,0,7.06-2.41,8.22-5.98l65.19-201.51v198.85c0,4.77,3.87,8.64,8.64,8.64h191.08c4.77,0,8.64-3.87,8.64-8.64v-40.3c0-4.77-3.87-8.64-8.64-8.64Z"/>
    <path class="st0" d="M2720.73,335.88h-102.56c-4.77,0-8.64-3.87-8.64-8.64v-182.09c0-4.77-3.87-8.64-8.64-8.64h-49.66c-4.77,0-8.64,3.87-8.64,8.64v239.67c0,4.77,3.87,8.64,8.64,8.64h169.49c4.77,0,8.64-3.87,8.64-8.64v-40.3c0-4.77-3.87-8.64-8.64-8.64Z"/>
  </g>
  <path class="st0" d="M441.56,107.72L270.32,8.85c-20.44-11.8-45.62-11.8-66.05,0L33.03,107.72C12.59,119.51,0,141.32,0,164.92v197.73c0,23.6,12.59,45.4,33.03,57.2l171.24,98.87c20.44,11.8,45.62,11.8,66.05,0l171.24-98.87c20.44-11.8,33.03-33.6,33.03-57.2v-197.73c0-23.6-12.59-45.4-33.03-57.2ZM318.8,364.53h-163.01c-36.15,0-58.74-39.13-40.67-70.44l81.5-141.17c18.07-31.31,63.26-31.31,81.34,0l81.5,141.17c18.07,31.31-4.52,70.44-40.67,70.44Z"/>
</svg>